<?xml version="1.0" encoding="utf-8"?>
<!-- Generator: Adobe Illustrator 20.0.0, SVG Export Plug-In . SVG Version: 6.00 Build 0)  -->
<svg version="1.0" id="Layer_1" xmlns="http://www.w3.org/2000/svg" xmlns:xlink="http://www.w3.org/1999/xlink" x="0px" y="0px"
	 viewBox="0 0 416 82" enable-background="new 0 0 357 102.5" xml:space="preserve">
	<g fill="#919191">
		<path d="M228.2 34.4c-2.3-2.1-5.3-3.4-8.5-3.4-6.9 0-13 5.5-13 13.1 0 7.7 6.3 13.1 13 13.1 3.6 0 6.5-1.3 8.8-3.5l2.6 3c-2.9 2.7-7.3 4.4-11.4 4.4-11.2 0-17.4-8.8-17.4-17 0-8.1 6.3-17 17.4-17 4.4 0 8.6 1.8 11.3 4.2l-2.8 3.1zM251.7 27.2c11.2 0 17.4 8.8 17.4 17 0 8.1-6.3 17-17.4 17-11.2 0-17.4-8.8-17.4-17s6.3-17 17.4-17zm0 30c6.7 0 13-5.3 13-13.1s-6.3-13.1-13-13.1-13 5.3-13 13.1 6.3 13.1 13 13.1zM296.1 27.7h4.2v32.9h-3.9l-17.6-25.4h-.1v25.4h-4.2V27.7h3.9L296 53.1h.1V27.7zM328.1 27.7h4.2v32.9h-3.9l-17.6-25.4h-.1v25.4h-4.2V27.7h3.9L328 53.1h.1V27.7zM338.6 27.7h17v3.9h-12.8V42h12.8v3.9h-12.8v10.8h12.8v3.9h-17V27.7zM385.8 34.4c-2.3-2.1-5.3-3.4-8.5-3.4-6.9 0-13 5.5-13 13.1 0 7.7 6.3 13.1 13 13.1 3.6 0 6.5-1.3 8.8-3.5l2.6 3c-2.9 2.7-7.3 4.4-11.4 4.4-11.2 0-17.4-8.8-17.4-17 0-8.1 6.3-17 17.4-17 4.4 0 8.6 1.8 11.3 4.2l-2.8 3.1zM398.9 31.6h-8.2v-3.9h20.6v3.9h-8.2v29h-4.2v-29z"/>
	</g>
	<g fill="#FFFFFF">
		<path d="M93.5 43.2c0-4.2-4.2-5.2-7.6-5.2-2.4 0-4.6.6-7 1.8L77 36.1c3.9-1.6 6.9-2 9.2-2 6.1 0 11.8 2.6 11.8 8.7v17.6h-4.1v-2.8C91.5 60 89 61 85.6 61c-6.2 0-11.1-3.5-11.1-9.2 0-4.7 4-8.8 11.1-8.8 2.7 0 5.5.8 7.9 2.9v-2.7zm-7.1 3.6c-5.4 0-7.2 2.6-7.2 5.1 0 2.5 1.8 5.1 7.2 5.1s7.2-2.6 7.2-5.1c0-2.4-1.8-5.1-7.2-5.1zM139.9 44.7c0-4.4-2.5-6.4-5.6-6.4-3.7 0-6.4 2.3-6.4 6.6v15.6h-4.4V44.7c0-4.4-2.5-6.4-5.6-6.4-3.7 0-6.4 2.3-6.4 6.6v15.6h-4.4V34.7h4.4v3.1h.1c1.2-2.6 4.4-3.7 7-3.7 2.6 0 5.4.7 7.5 4.4 1.6-3.3 4.9-4.4 8.3-4.4 5.5 0 9.8 3.3 9.8 10.1v16.2h-4.4V44.7zM155.1 30.8c0-5.4 3.7-8 8.8-8.2V27h-.9c-2.3 0-3.5 1.8-3.5 4.1v3.6h4.2v3.9h-4.2v21.8h-4.4V38.6h-3.9v-3.9h3.9v-3.9zM63.4 34.7h4.4l.1 29c0 6.7-4.3 9-9.2 9h-1.6v-4.2h1.6c4.3 0 4.8-2.4 4.8-4.6l-.1-29.2zm2.1-11.3c1.7 0 3.1 1.4 3.1 3.1 0 1.7-1.4 3.1-3.1 3.1-1.7 0-3.1-1.4-3.1-3.1 0-1.7 1.4-3.1 3.1-3.1z"/>
	</g>
	<path fill="#778EB1" d="M6.3 18.1c-1.3 0-2.3 1-2.3 2.3v16.1c0 1.3 1 2.3 2.3 2.3h8.1c3.7 0 8.8-.8 10.2-7.3 0 0 1.4-6.6 2.2-10.5.3-1.5-.8-2.8-2.3-2.8H6.3z"/>
	<path fill="#778EB1" d="M37.3 25.7c-5.5 0-8.7 2.3-10.2 7.2l-3.8 11.8c-1.4 3.9-3.6 5.5-7.7 5.5H6.2c-1.2 0-2.2 1-2.2 2.2v6c0 1.1.9 2.1 2.1 2.1h38.2c1.2 0 2.2-1 2.2-2.2V27.8c0-1.2-.9-2.1-2.1-2.1h-7.1z"/>
	<path fill="#BFBEBE" d="M182.8 81c-.3 0-.6-.3-.6-.6V1.6c0-.3.3-.6.6-.6s.6.3.6.6v78.8c0 .3-.3.6-.6.6z"/>
</svg>
