<svg xmlns="http://www.w3.org/2000/svg" viewBox="0 0 199.9 68.4"><defs><style>.cls-1{fill:#fff;}.cls-2{fill:#778eb1;}</style></defs><title>Zasób 1</title><g id="Warstwa_2" data-name="Warstwa 2"><g id="Layer_1" data-name="Layer 1"><path class="cls-1" d="M111.8,31.5c0-5.3-5.2-6.5-9.6-6.5a19.26,19.26,0,0,0-8.8,2.3l-2.3-4.6a29.32,29.32,0,0,1,11.5-2.4c7.7,0,14.7,3.3,14.7,11v22h-5.1V49.8c-2.8,3-5.9,4.2-10.2,4.2-7.7,0-13.9-4.3-13.9-11.6,0-5.8,5-11,13.8-11a14,14,0,0,1,9.8,3.7l.1-3.6ZM103,36c-6.7,0-9,3.3-9,6.4s2.3,6.4,9,6.4,9-3.3,9-6.4S109.7,36,103,36Zm66.8-2.7c0-5.6-3.2-8-7-8-4.6,0-8,2.9-8,8.3V53.1h-5.5V33.3c0-5.6-3.2-8-7-8-4.6,0-8,2.9-8,8.3V53.1H129V20.9h5.5v3.8h.1c1.5-3.3,5.5-4.6,8.8-4.6s6.8.9,9.4,5.6c1.9-4.1,6.2-5.6,10.4-5.6,6.9,0,12.3,4.2,12.3,12.6V53H170l-.2-19.7Zm19.1-17.4c0-6.7,4.6-9.9,11-10.3v5.6h-1.1c-2.8,0-4.3,2.3-4.3,5.1v4.4h5.2v4.9h-5.2V52.9H189V25.7h-5V20.8h4.9Zm-114.7,5h5.5l.2,36.3c0,8.3-5.4,11.2-11.5,11.2h-2V63.2c1.5.1,2,.1,2,.1,5.4,0,5.9-3,5.9-5.7C74.3,57.5,74.2,20.9,74.2,20.9ZM76.9,6.8a3.76,3.76,0,0,1,3.8,3.9,3.82,3.82,0,0,1-3.8,3.9A3.9,3.9,0,0,1,73,10.7,3.84,3.84,0,0,1,76.9,6.8Z"/><path class="cls-2" d="M2.9,0A2.9,2.9,0,0,0,0,2.9V23a2.9,2.9,0,0,0,2.9,2.9H13c4.6,0,11-1,12.8-9.2,0,0,1.7-8.3,2.8-13.1A3,3,0,0,0,25.7.1H2.9Z"/><path class="cls-2" d="M41.7,9.6c-6.9,0-10.9,2.9-12.7,9L24.2,33.3c-1.7,4.9-4.5,6.9-9.7,6.9H2.7A2.69,2.69,0,0,0,0,42.9v7.5A2.52,2.52,0,0,0,2.6,53H50.3A2.69,2.69,0,0,0,53,50.3V12.2a2.52,2.52,0,0,0-2.6-2.6Z"/></g></g></svg>